<svg width="64" height="64" viewBox="0 0 64 64" fill="none" xmlns="http://www.w3.org/2000/svg">
<circle cx="32" cy="32" r="32" fill="black"/>
<path d="M34.1267 25.8796C33.8976 26.1132 33.7693 26.4274 33.7693 26.7546C33.7693 27.0817 33.8976 27.3959 34.1267 27.6296L36.1267 29.6296C36.3603 29.8586 36.6745 29.9869 37.0017 29.9869C37.3288 29.9869 37.643 29.8586 37.8767 29.6296L42.5892 24.9171C43.2177 26.306 43.408 27.8536 43.1347 29.3535C42.8614 30.8534 42.1375 32.2344 41.0595 33.3124C39.9815 34.3904 38.6005 35.1143 37.1006 35.3876C35.6007 35.6609 34.0531 35.4706 32.6642 34.8421L24.0267 43.4796C23.5294 43.9768 22.8549 44.2562 22.1517 44.2562C21.4484 44.2562 20.7739 43.9768 20.2767 43.4796C19.7794 42.9823 19.5 42.3078 19.5 41.6046C19.5 40.9013 19.7794 40.2268 20.2767 39.7296L28.9142 31.0921C28.2856 29.7031 28.0953 28.1555 28.3686 26.6556C28.6419 25.1557 29.3658 23.7747 30.4438 22.6967C31.5218 21.6187 32.9028 20.8948 34.4027 20.6215C35.9026 20.3482 37.4502 20.5385 38.8392 21.1671L34.1392 25.8671L34.1267 25.8796Z" stroke="white" stroke-width="2" stroke-linecap="round" stroke-linejoin="round"/>
</svg>
